<svg data-v-423bf9ae="" xmlns="http://www.w3.org/2000/svg" viewBox="0 0 594.411224481736 60" class="font"><!----><!----><!----><g data-v-423bf9ae="" id="f7564ac6-4bd4-4c90-bc14-5a4bb5f7448e" fill="black" transform="matrix(9.556655573992712,0,0,9.556655573992712,-0.031865830325898514,-51.11855140022685)"><path d="M3.29 5.75L3.29 5.75L3.29 5.75Q3.19 5.86 2.97 5.84L2.97 5.84L2.63 5.82L2.63 5.82Q2.53 5.82 2.43 5.81L2.43 5.81L2.43 5.81Q2.34 5.80 2.24 5.80L2.24 5.80L2.24 5.80Q2.03 5.80 1.93 5.89L1.93 5.89L1.93 5.89Q1.86 5.98 1.86 6.19L1.86 6.19L1.86 6.19Q1.86 6.28 1.87 6.37L1.87 6.37L1.87 6.37Q1.88 6.47 1.88 6.56L1.88 6.56L1.88 6.56Q1.89 6.79 1.89 6.96L1.89 6.96L1.89 6.96Q1.89 7.12 1.89 7.24L1.89 7.24L1.89 7.24Q1.89 7.59 1.85 7.94L1.85 7.94L1.85 7.94Q1.83 8.10 1.85 8.26L1.85 8.26L1.85 8.26Q1.87 8.43 1.88 8.59L1.88 8.59L1.88 8.59Q1.89 8.76 1.89 8.89L1.89 8.89L1.89 8.89Q1.89 9.02 1.89 9.11L1.89 9.11L1.89 9.11Q1.89 9.15 1.89 9.20L1.89 9.20L1.89 9.20Q1.89 9.26 1.89 9.35L1.89 9.35L1.89 9.35Q1.87 9.54 1.86 9.58L1.86 9.58L1.86 9.58Q1.77 9.73 1.63 9.69L1.63 9.69L1.63 9.69Q1.45 9.65 1.45 9.43L1.45 9.43L1.45 9.43Q1.44 9.22 1.46 9.01L1.46 9.01L1.46 9.01Q1.48 8.80 1.49 8.60L1.49 8.60L1.49 8.60Q1.51 8.36 1.49 8.11L1.49 8.11L1.49 8.11Q1.46 7.87 1.46 7.62L1.46 7.62L1.46 7.62Q1.46 7.40 1.48 7.17L1.48 7.17L1.48 7.17Q1.50 6.94 1.50 6.71L1.50 6.71L1.50 6.71Q1.50 6.27 1.36 6.08L1.36 6.08L1.36 6.08Q1.29 5.99 1.18 5.94L1.18 5.94L1.18 5.94Q1.07 5.89 0.94 5.87L0.94 5.87L0.94 5.87Q0.81 5.86 0.70 5.85L0.70 5.85L0.70 5.85Q0.59 5.84 0.48 5.84L0.48 5.84L0.48 5.84Q0.40 5.84 0.27 5.84L0.27 5.84L0.27 5.84Q0.14 5.84 0.08 5.80L0.08 5.80L0.08 5.80Q0.02 5.77 0.01 5.67L0.01 5.67L0.01 5.67Q-0.01 5.59 0.03 5.54L0.03 5.54L0.03 5.54Q0.08 5.46 0.27 5.43L0.27 5.43L0.27 5.43Q0.29 5.43 0.34 5.43L0.34 5.43L0.34 5.43Q0.63 5.42 0.90 5.45L0.90 5.45L0.90 5.45Q1.17 5.48 1.46 5.46L1.46 5.46L1.46 5.46Q1.57 5.46 1.69 5.44L1.69 5.44L1.69 5.44Q1.80 5.43 1.92 5.43L1.92 5.43L1.92 5.43Q2.15 5.43 2.38 5.43L2.38 5.43L2.38 5.43Q2.60 5.43 2.83 5.42L2.83 5.42L2.83 5.42Q2.95 5.42 3.03 5.43L3.03 5.43L3.03 5.43Q3.12 5.43 3.18 5.46L3.18 5.46L3.18 5.46Q3.39 5.61 3.29 5.75ZM6.52 7.01L6.52 7.01L6.52 7.01Q6.77 7.01 7.01 7.02L7.01 7.02L7.01 7.02Q7.26 7.03 7.51 7.07L7.51 7.07L7.51 7.07Q7.70 7.10 7.80 6.99L7.80 6.99L7.80 6.99Q7.88 6.90 7.87 6.78L7.87 6.78L7.87 6.78Q7.87 6.66 7.87 6.55L7.87 6.55L7.87 6.55Q7.88 6.38 7.88 6.25L7.88 6.25L7.88 6.25Q7.88 6.13 7.88 6.04L7.88 6.04L7.88 6.04Q7.88 6.00 7.88 5.93L7.88 5.93L7.88 5.93Q7.88 5.87 7.89 5.79L7.89 5.79L7.89 5.79Q7.89 5.72 7.90 5.65L7.90 5.65L7.90 5.65Q7.91 5.58 7.93 5.54L7.93 5.54L7.93 5.54Q7.99 5.40 8.16 5.41L8.16 5.41L8.16 5.41Q8.33 5.43 8.33 5.72L8.33 5.72L8.33 5.72Q8.33 5.89 8.31 6.06L8.31 6.06L8.31 6.06Q8.30 6.23 8.31 6.40L8.31 6.40L8.31 6.41L8.31 6.41Q8.31 6.68 8.33 6.95L8.33 6.95L8.33 6.95Q8.34 7.23 8.35 7.49L8.35 7.49L8.35 7.49Q8.37 7.66 8.35 7.82L8.35 7.82L8.35 7.82Q8.34 7.99 8.34 8.16L8.34 8.16L8.34 8.16Q8.33 8.44 8.33 8.73L8.33 8.73L8.33 8.73Q8.33 9.01 8.33 9.30L8.33 9.30L8.33 9.30Q8.33 9.55 8.29 9.63L8.29 9.63L8.29 9.63Q8.26 9.67 8.18 9.69L8.18 9.69L8.18 9.69Q7.93 9.75 7.90 9.47L7.90 9.47L7.90 9.47Q7.86 9.13 7.87 8.77L7.87 8.77L7.87 8.77Q7.88 8.42 7.87 8.06L7.87 8.06L7.87 8.06Q7.86 7.93 7.84 7.77L7.84 7.77L7.84 7.77Q7.81 7.62 7.70 7.52L7.70 7.52L7.70 7.52Q7.60 7.44 7.35 7.44L7.35 7.44L7.35 7.44Q7.23 7.44 7.11 7.44L7.11 7.44L7.11 7.44Q6.99 7.45 6.86 7.44L6.86 7.44L6.47 7.44L6.47 7.44Q6.35 7.45 6.23 7.44L6.23 7.44L6.23 7.44Q6.11 7.43 5.99 7.42L5.99 7.42L5.99 7.42Q5.73 7.40 5.60 7.49L5.60 7.49L5.60 7.49Q5.44 7.63 5.44 7.95L5.44 7.95L5.44 7.95Q5.44 8.16 5.45 8.38L5.45 8.38L5.45 8.38Q5.46 8.59 5.46 8.80L5.46 8.80L5.46 8.80Q5.46 8.97 5.45 9.10L5.45 9.10L5.45 9.10Q5.44 9.22 5.44 9.31L5.44 9.31L5.44 9.31Q5.43 9.41 5.43 9.47L5.43 9.47L5.43 9.47Q5.42 9.54 5.41 9.59L5.41 9.59L5.41 9.59Q5.33 9.73 5.17 9.69L5.17 9.69L5.17 9.69Q5.00 9.67 5.00 9.44L5.00 9.44L5.00 9.44Q5.00 9.21 5.00 9.00L5.00 9.00L5.00 9.00Q5.00 8.78 5.01 8.55L5.01 8.55L5.01 8.55Q5.02 8.34 5.01 8.12L5.01 8.12L5.01 8.12Q5.00 7.91 5.00 7.69L5.00 7.69L5.00 7.69Q5.00 7.34 5.01 6.99L5.01 6.99L5.01 6.99Q5.02 6.64 5.02 6.30L5.02 6.30L5.02 6.30Q5.02 6.24 5.02 6.15L5.02 6.15L5.02 6.15Q5.01 6.05 5.00 5.91L5.00 5.91L5.00 5.91Q4.99 5.61 5.02 5.54L5.02 5.54L5.02 5.54Q5.11 5.41 5.23 5.41L5.23 5.41L5.23 5.41Q5.43 5.42 5.46 5.74L5.46 5.74L5.46 5.74Q5.46 5.82 5.47 5.88L5.47 5.88L5.47 5.88Q5.47 5.94 5.47 5.99L5.47 5.99L5.47 5.99Q5.47 6.02 5.47 6.08L5.47 6.08L5.47 6.08Q5.47 6.15 5.46 6.23L5.46 6.23L5.46 6.23Q5.44 6.33 5.43 6.43L5.43 6.43L5.43 6.43Q5.41 6.54 5.41 6.63L5.41 6.63L5.41 6.63Q5.40 6.85 5.50 6.93L5.50 6.93L5.50 6.93Q5.60 7.01 5.77 6.98L5.77 6.98L5.77 6.98Q5.87 6.97 5.93 6.97L5.93 6.97L5.93 6.97Q6.00 6.97 6.05 6.97L6.05 6.97L6.05 6.97Q6.17 6.98 6.28 6.99L6.28 6.99L6.28 6.99Q6.40 7.01 6.52 7.01ZM10.24 9.29L10.24 9.29L10.24 9.29Q10.23 8.87 10.24 8.46L10.24 8.46L10.24 8.46Q10.24 8.04 10.24 7.62L10.24 7.62L10.24 7.38L10.24 7.38Q10.24 7.20 10.23 7.01L10.23 7.01L10.23 7.01Q10.22 6.82 10.23 6.64L10.23 6.64L10.23 6.64Q10.24 6.43 10.24 6.23L10.24 6.23L10.24 6.23Q10.24 6.03 10.25 5.82L10.25 5.82L10.25 5.82Q10.25 5.58 10.36 5.48L10.36 5.48L10.36 5.48Q10.45 5.41 10.68 5.41L10.68 5.41L10.68 5.41Q10.79 5.41 10.88 5.40L10.88 5.40L10.88 5.40Q10.96 5.40 11.03 5.40L11.03 5.40L11.03 5.40Q11.29 5.39 11.56 5.40L11.56 5.40L11.56 5.40Q11.83 5.41 12.09 5.41L12.09 5.41L12.09 5.41Q12.24 5.40 12.38 5.40L12.38 5.40L12.38 5.40Q12.52 5.39 12.66 5.41L12.66 5.41L13.01 5.43L13.01 5.43Q13.07 5.43 13.11 5.43L13.11 5.43L13.11 5.43Q13.16 5.43 13.19 5.45L13.19 5.45L13.19 5.45Q13.34 5.52 13.33 5.66L13.33 5.66L13.33 5.66Q13.32 5.72 13.28 5.76L13.28 5.76L13.28 5.76Q13.24 5.80 13.19 5.82L13.19 5.82L13.19 5.82Q13.14 5.84 13.08 5.84L13.08 5.84L13.08 5.84Q13.03 5.85 12.99 5.85L12.99 5.85L12.99 5.85Q12.57 5.85 12.16 5.83L12.16 5.83L12.16 5.83Q12.12 5.82 12.06 5.82L12.06 5.82L12.06 5.82Q12.00 5.82 11.92 5.82L11.92 5.82L11.53 5.82L11.53 5.82Q11.37 5.82 11.25 5.83L11.25 5.83L11.25 5.83Q11.12 5.83 11.04 5.83L11.04 5.83L11.04 5.83Q10.92 5.84 10.85 5.86L10.85 5.86L10.85 5.86Q10.77 5.89 10.74 5.94L10.74 5.94L10.74 5.94Q10.68 6.02 10.70 6.15L10.70 6.15L10.70 6.15Q10.70 6.20 10.70 6.24L10.70 6.24L10.70 6.24Q10.70 6.28 10.69 6.32L10.69 6.32L10.69 6.32Q10.68 6.40 10.67 6.49L10.67 6.49L10.67 6.49Q10.66 6.58 10.67 6.69L10.67 6.69L10.67 6.69Q10.67 6.88 10.82 7.01L10.82 7.01L10.82 7.01Q10.94 7.12 11.27 7.10L11.27 7.10L11.27 7.10Q11.41 7.10 11.55 7.08L11.55 7.08L11.55 7.08Q11.69 7.06 11.83 7.07L11.83 7.07L11.83 7.07Q11.89 7.07 11.99 7.07L11.99 7.07L11.99 7.07Q12.09 7.08 12.23 7.07L12.23 7.07L12.23 7.07Q12.50 7.06 12.60 7.16L12.60 7.16L12.60 7.16Q12.63 7.21 12.63 7.32L12.63 7.32L12.63 7.32Q12.61 7.44 12.43 7.47L12.43 7.47L12.43 7.47Q12.28 7.50 12.18 7.50L12.18 7.50L12.18 7.50Q12.06 7.51 11.94 7.50L11.94 7.50L11.94 7.50Q11.82 7.50 11.70 7.51L11.70 7.51L11.70 7.51Q11.55 7.52 11.39 7.51L11.39 7.51L11.39 7.51Q11.23 7.51 11.06 7.49L11.06 7.49L11.06 7.49Q11.04 7.49 11.01 7.49L11.01 7.49L11.01 7.49Q10.99 7.49 10.96 7.49L10.96 7.49L10.96 7.49L10.96 7.49Q10.88 7.47 10.81 7.52L10.81 7.52L10.81 7.52Q10.68 7.59 10.67 7.78L10.67 7.78L10.67 7.78Q10.66 7.96 10.67 8.09L10.67 8.09L10.67 8.09Q10.68 8.16 10.68 8.22L10.68 8.22L10.68 8.22Q10.68 8.29 10.68 8.33L10.68 8.33L10.68 8.33Q10.66 8.44 10.65 8.53L10.65 8.53L10.65 8.53Q10.64 8.63 10.63 8.74L10.63 8.74L10.63 8.74Q10.61 9.00 10.70 9.13L10.70 9.13L10.70 9.13Q10.81 9.28 11.10 9.28L11.10 9.28L11.10 9.28Q11.33 9.28 11.56 9.27L11.56 9.27L11.56 9.27Q11.79 9.26 12.02 9.25L12.02 9.25L12.02 9.25Q12.24 9.24 12.46 9.26L12.46 9.26L12.46 9.26Q12.68 9.28 12.90 9.28L12.90 9.28L12.90 9.28Q12.98 9.28 13.12 9.28L13.12 9.28L13.12 9.28Q13.25 9.28 13.33 9.32L13.33 9.32L13.33 9.32Q13.40 9.36 13.41 9.44L13.41 9.44L13.41 9.44Q13.48 9.69 13.19 9.70L13.19 9.70L13.19 9.70Q12.74 9.72 12.31 9.71L12.31 9.71L12.31 9.71Q11.87 9.71 11.44 9.71L11.44 9.71L11.44 9.71Q11.41 9.71 11.39 9.72L11.39 9.72L11.39 9.72Q11.36 9.72 11.34 9.72L11.34 9.72L11.34 9.72Q11.18 9.72 11.07 9.72L11.07 9.72L11.07 9.72Q10.96 9.72 10.88 9.71L10.88 9.71L10.88 9.71Q10.83 9.71 10.77 9.71L10.77 9.71L10.77 9.71Q10.71 9.71 10.62 9.70L10.62 9.70L10.62 9.70Q10.55 9.69 10.51 9.69L10.51 9.69L10.51 9.69Q10.47 9.68 10.45 9.67L10.45 9.67L10.45 9.67Q10.24 9.61 10.24 9.29ZM19.21 5.58L19.21 5.58L19.21 5.58Q19.26 5.56 19.33 5.55L19.33 5.55L19.33 5.55Q19.40 5.55 19.47 5.56L19.47 5.56L19.47 5.56Q19.54 5.58 19.60 5.61L19.60 5.61L19.60 5.61Q19.65 5.65 19.68 5.69L19.68 5.69L19.68 5.69Q19.93 6.21 20.13 6.73L20.13 6.73L20.13 6.73Q20.33 7.25 20.59 7.76L20.59 7.76L20.59 7.76Q20.79 8.15 20.95 8.58L20.95 8.58L20.95 8.58Q21.12 9.00 21.33 9.43L21.33 9.43L21.35 9.46L21.36 9.47L21.36 9.47Q21.46 9.67 21.55 9.81L21.55 9.81L21.55 9.81Q21.64 9.95 21.69 10.02L21.69 10.02L21.69 10.02Q22.18 10.67 22.69 10.96L22.69 10.96L22.69 10.96Q23.19 11.25 23.82 11.21L23.82 11.21L23.82 11.20L23.83 11.20L23.83 11.20Q24.04 11.20 24.06 11.40L24.06 11.40L24.06 11.40Q24.07 11.61 23.86 11.62L23.86 11.62L23.86 11.62Q23.00 11.68 22.33 11.25L22.33 11.25L22.33 11.25Q21.85 10.94 21.52 10.48L21.52 10.48L21.52 10.48Q21.18 10.01 20.95 9.53L20.95 9.53L20.95 9.53Q20.88 9.37 20.80 9.21L20.80 9.21L20.80 9.21Q20.73 9.05 20.63 8.91L20.63 8.91L20.63 8.91Q20.56 8.78 20.46 8.70L20.46 8.70L20.46 8.70Q20.36 8.61 20.27 8.56L20.27 8.56L20.27 8.56Q20.17 8.51 20.04 8.48L20.04 8.48L20.04 8.48Q19.91 8.46 19.76 8.46L19.76 8.46L19.76 8.46Q19.64 8.46 19.47 8.48L19.47 8.48L19.47 8.48Q19.29 8.50 19.07 8.51L19.07 8.51L18.94 8.52L18.94 8.52Q18.79 8.53 18.61 8.56L18.61 8.56L18.61 8.56Q18.44 8.59 18.31 8.70L18.31 8.70L18.31 8.70Q18.27 8.74 18.22 8.81L18.22 8.81L18.22 8.81Q18.18 8.88 18.14 8.98L18.14 8.98L18.14 8.98Q18.11 9.06 18.08 9.16L18.08 9.16L18.08 9.16Q18.05 9.26 18.01 9.37L18.01 9.37L18.01 9.37Q17.99 9.43 17.93 9.61L17.93 9.61L17.93 9.61Q17.75 9.82 17.64 9.78L17.64 9.78L17.64 9.78Q17.59 9.75 17.57 9.64L17.57 9.64L17.57 9.64Q17.56 9.54 17.56 9.45L17.56 9.45L17.56 9.45Q17.57 9.36 17.60 9.26L17.60 9.26L17.60 9.26Q17.73 8.89 17.89 8.52L17.89 8.52L17.89 8.52Q18.05 8.15 18.22 7.78L18.22 7.78L18.22 7.78Q18.35 7.49 18.48 7.21L18.48 7.21L18.48 7.21Q18.61 6.92 18.74 6.62L18.74 6.62L18.74 6.62Q18.79 6.48 18.84 6.34L18.84 6.34L18.84 6.34Q18.89 6.20 18.96 6.06L18.96 6.06L19.07 5.81L19.07 5.81Q19.15 5.63 19.21 5.58ZM19.42 6.49L19.42 6.49L19.42 6.49Q19.29 6.49 19.22 6.60L19.22 6.60L19.22 6.60Q19.17 6.64 19.13 6.75L19.13 6.75L19.13 6.75Q19.07 6.84 19.02 6.96L19.02 6.96L19.02 6.96Q18.98 7.08 18.93 7.21L18.93 7.21L18.93 7.21Q18.84 7.49 18.81 7.67L18.81 7.67L18.81 7.67Q18.76 8.00 18.92 8.09L18.92 8.09L18.92 8.09Q18.97 8.12 19.01 8.12L19.01 8.12L19.01 8.12Q19.09 8.13 19.19 8.13L19.19 8.13L19.19 8.13Q19.30 8.13 19.44 8.13L19.44 8.13L19.44 8.13Q19.55 8.13 19.71 8.13L19.71 8.13L19.71 8.13Q19.87 8.12 19.98 8.09L19.98 8.09L20.08 8.06L20.10 7.96L20.10 7.96Q20.14 7.84 20.09 7.67L20.09 7.67L20.09 7.67Q20.04 7.51 19.93 7.28L19.93 7.28L19.93 7.28Q19.82 7.05 19.75 6.88L19.75 6.88L19.75 6.88Q19.67 6.71 19.61 6.60L19.61 6.60L19.61 6.60Q19.54 6.48 19.42 6.49ZM26.03 9.34L26.03 9.34L26.03 9.34Q26.11 9.40 26.11 9.50L26.11 9.50L26.11 9.50Q26.12 9.72 25.85 9.72L25.85 9.72L25.85 9.72Q25.35 9.72 24.86 9.71L24.86 9.71L24.86 9.71Q24.37 9.69 23.88 9.73L23.88 9.73L23.88 9.73Q23.49 9.75 23.41 9.52L23.41 9.52L23.41 9.52Q23.37 9.41 23.37 9.19L23.37 9.19L23.37 9.19Q23.37 9.08 23.38 8.99L23.38 8.99L23.38 8.99Q23.38 8.91 23.38 8.85L23.38 8.85L23.38 8.85Q23.39 8.70 23.40 8.53L23.40 8.53L23.40 8.53Q23.41 8.37 23.40 8.22L23.40 8.22L23.40 8.22Q23.39 7.89 23.37 7.58L23.37 7.58L23.37 7.58Q23.36 7.27 23.37 6.94L23.37 6.94L23.37 6.94Q23.37 6.78 23.38 6.63L23.38 6.63L23.38 6.63Q23.39 6.47 23.39 6.31L23.39 6.31L23.39 6.31Q23.39 6.11 23.39 5.94L23.39 5.94L23.39 5.94Q23.39 5.78 23.37 5.64L23.37 5.64L23.37 5.64Q23.36 5.46 23.54 5.42L23.54 5.42L23.54 5.42Q23.81 5.37 23.83 5.74L23.83 5.74L23.83 5.74Q23.84 5.89 23.85 6.04L23.85 6.04L23.85 6.04Q23.86 6.19 23.87 6.32L23.87 6.32L23.87 6.50L23.84 6.76L23.84 6.76Q23.83 6.87 23.82 6.98L23.82 6.98L23.82 6.98Q23.81 7.09 23.80 7.19L23.80 7.19L23.80 7.19Q23.79 7.45 23.79 7.65L23.79 7.65L23.79 7.65Q23.79 7.84 23.80 7.97L23.80 7.97L23.80 7.97Q23.81 8.13 23.81 8.31L23.81 8.31L23.81 8.31Q23.82 8.49 23.80 8.69L23.80 8.69L23.80 8.69Q23.79 8.99 23.88 9.08L23.88 9.08L23.88 9.08Q23.96 9.17 24.21 9.19L24.21 9.19L24.21 9.19Q24.33 9.21 24.45 9.21L24.45 9.21L24.45 9.21Q24.57 9.22 24.69 9.24L24.69 9.24L24.69 9.24Q24.88 9.26 25.07 9.24L25.07 9.24L25.07 9.24Q25.26 9.22 25.45 9.25L25.45 9.25L25.45 9.25Q25.57 9.26 25.75 9.27L25.75 9.27L25.75 9.27Q25.92 9.28 26.03 9.34ZM30.25 9.34L30.25 9.34L30.25 9.34Q30.33 9.40 30.33 9.50L30.33 9.50L30.33 9.50Q30.34 9.72 30.06 9.72L30.06 9.72L30.06 9.72Q29.57 9.72 29.08 9.71L29.08 9.71L29.08 9.71Q28.59 9.69 28.10 9.73L28.10 9.73L28.10 9.73Q27.71 9.75 27.62 9.52L27.62 9.52L27.62 9.52Q27.58 9.41 27.58 9.19L27.58 9.19L27.58 9.19Q27.59 9.08 27.59 8.99L27.59 8.99L27.59 8.99Q27.60 8.91 27.60 8.85L27.60 8.85L27.60 8.85Q27.60 8.70 27.61 8.53L27.61 8.53L27.61 8.53Q27.62 8.37 27.62 8.22L27.62 8.22L27.62 8.22Q27.60 7.89 27.59 7.58L27.59 7.58L27.59 7.58Q27.58 7.27 27.58 6.94L27.58 6.94L27.58 6.94Q27.59 6.78 27.60 6.63L27.60 6.63L27.60 6.63Q27.60 6.47 27.60 6.31L27.60 6.31L27.60 6.31Q27.61 6.11 27.61 5.94L27.61 5.94L27.61 5.94Q27.60 5.78 27.59 5.64L27.59 5.64L27.59 5.64Q27.58 5.46 27.76 5.42L27.76 5.42L27.76 5.42Q28.03 5.37 28.05 5.74L28.05 5.74L28.05 5.74Q28.06 5.89 28.07 6.04L28.07 6.04L28.07 6.04Q28.08 6.19 28.09 6.32L28.09 6.32L28.09 6.50L28.06 6.76L28.06 6.76Q28.05 6.87 28.04 6.98L28.04 6.98L28.04 6.98Q28.03 7.09 28.02 7.19L28.02 7.19L28.02 7.19Q28.01 7.45 28.01 7.65L28.01 7.65L28.01 7.65Q28.01 7.84 28.01 7.97L28.01 7.97L28.01 7.97Q28.03 8.13 28.03 8.31L28.03 8.31L28.03 8.31Q28.03 8.49 28.02 8.69L28.02 8.69L28.02 8.69Q28.01 8.99 28.10 9.08L28.10 9.08L28.10 9.08Q28.18 9.17 28.42 9.19L28.42 9.19L28.42 9.19Q28.55 9.21 28.67 9.21L28.67 9.21L28.67 9.21Q28.79 9.22 28.91 9.24L28.91 9.24L28.91 9.24Q29.09 9.26 29.29 9.24L29.29 9.24L29.29 9.24Q29.48 9.22 29.67 9.25L29.67 9.25L29.67 9.25Q29.79 9.26 29.97 9.27L29.97 9.27L29.97 9.27Q30.14 9.28 30.25 9.34ZM34.81 9.56L34.81 9.56L34.81 9.56Q34.78 9.68 34.60 9.70L34.60 9.70L34.60 9.70Q34.41 9.69 34.41 9.49L34.41 9.49L34.41 9.49Q34.41 8.96 34.38 8.41L34.38 8.41L34.38 8.41Q34.36 7.87 34.41 7.33L34.41 7.33L34.41 7.33L34.41 7.33Q34.41 7.17 34.42 7.02L34.42 7.02L34.42 7.02Q34.42 6.87 34.41 6.73L34.41 6.73L34.35 6.21L34.35 6.21Q34.33 5.99 34.42 5.74L34.42 5.74L34.42 5.74Q34.49 5.56 34.60 5.52L34.60 5.52L34.60 5.52Q34.70 5.50 34.80 5.62L34.80 5.62L34.80 5.62Q34.90 5.72 34.95 5.80L34.95 5.80L34.95 5.80Q35.03 5.93 35.13 6.03L35.13 6.03L35.13 6.03Q35.22 6.13 35.31 6.22L35.31 6.22L35.31 6.22Q35.38 6.31 35.46 6.37L35.46 6.37L35.46 6.37Q35.54 6.44 35.62 6.52L35.62 6.52L35.62 6.52Q35.68 6.59 35.77 6.70L35.77 6.70L35.77 6.70Q35.85 6.80 35.94 6.95L35.94 6.95L36.24 7.41L36.24 7.41Q36.28 7.46 36.32 7.52L36.32 7.52L36.32 7.52Q36.35 7.58 36.41 7.66L36.41 7.66L36.42 7.67L36.42 7.67Q36.56 7.86 36.72 8.03L36.72 8.03L36.72 8.03Q36.79 8.11 36.87 8.19L36.87 8.19L36.87 8.19Q36.94 8.26 37.02 8.33L37.02 8.33L37.02 8.33Q37.10 8.42 37.20 8.39L37.20 8.39L37.20 8.39Q37.36 8.35 37.35 8.07L37.35 8.07L37.35 8.07Q37.35 8.00 37.34 7.93L37.34 7.93L37.34 7.93Q37.33 7.85 37.33 7.78L37.33 7.78L37.33 7.78Q37.32 7.72 37.32 7.67L37.32 7.67L37.32 7.67Q37.31 7.62 37.31 7.56L37.31 7.56L37.31 7.56Q37.31 7.53 37.31 7.50L37.31 7.50L37.31 7.50Q37.30 7.46 37.30 7.42L37.30 7.42L37.30 7.42Q37.33 6.82 37.26 6.30L37.26 6.30L37.26 6.30Q37.26 6.27 37.26 6.19L37.26 6.19L37.26 6.19Q37.26 6.11 37.27 5.99L37.27 5.99L37.27 5.99Q37.28 5.84 37.31 5.67L37.31 5.67L37.31 5.67Q37.33 5.42 37.53 5.42L37.53 5.42L37.53 5.42Q37.75 5.42 37.75 5.68L37.75 5.68L37.75 5.68Q37.75 5.89 37.77 6.11L37.77 6.11L37.77 6.11Q37.78 6.32 37.78 6.54L37.78 6.54L37.78 6.54Q37.78 6.85 37.76 7.16L37.76 7.16L37.76 7.16Q37.74 7.48 37.75 7.79L37.75 7.79L37.75 7.79Q37.77 8.00 37.77 8.21L37.77 8.21L37.77 8.21Q37.76 8.42 37.75 8.62L37.75 8.62L37.75 8.62Q37.75 8.74 37.76 8.85L37.76 8.85L37.76 8.85Q37.76 8.96 37.76 9.06L37.76 9.06L37.76 9.34L37.76 9.34Q37.75 9.38 37.75 9.42L37.75 9.42L37.75 9.42Q37.75 9.46 37.75 9.50L37.75 9.50L37.75 9.50Q37.74 9.50 37.74 9.51L37.74 9.51L37.74 9.51Q37.74 9.52 37.73 9.52L37.73 9.52L37.73 9.52Q37.66 9.62 37.50 9.62L37.50 9.62L37.50 9.62Q37.32 9.63 37.22 9.50L37.22 9.50L37.22 9.50Q37.12 9.37 37.03 9.22L37.03 9.22L37.03 9.22Q36.95 9.07 36.85 8.93L36.85 8.93L36.85 8.93Q36.72 8.76 36.58 8.58L36.58 8.58L36.58 8.58Q36.43 8.39 36.25 8.18L36.25 8.18L36.25 8.18Q36.18 8.10 36.06 7.90L36.06 7.90L35.82 7.52L35.82 7.52Q35.73 7.38 35.64 7.24L35.64 7.24L35.64 7.24Q35.55 7.10 35.46 6.97L35.46 6.97L35.46 6.97Q35.42 6.92 35.37 6.87L35.37 6.87L35.37 6.87Q35.32 6.81 35.27 6.77L35.27 6.77L35.27 6.77Q35.21 6.73 35.14 6.71L35.14 6.71L35.14 6.71Q35.08 6.69 35.01 6.71L35.01 6.71L35.01 6.71Q34.82 6.76 34.84 7.08L34.84 7.08L34.84 7.08Q34.84 7.31 34.85 7.52L34.85 7.52L34.85 7.52Q34.85 7.72 34.86 7.90L34.86 7.90L34.86 7.90Q34.88 8.05 34.86 8.19L34.86 8.19L34.86 8.19Q34.84 8.33 34.84 8.47L34.84 8.47L34.84 9.00L34.84 9.00Q34.84 9.17 34.83 9.31L34.83 9.31L34.83 9.31Q34.82 9.45 34.81 9.56ZM41.07 9.69L41.07 9.69L41.07 9.69Q40.93 9.65 40.79 9.58L40.79 9.58L40.79 9.58Q40.65 9.52 40.52 9.43L40.52 9.43L40.52 9.43Q40.39 9.34 40.27 9.24L40.27 9.24L40.27 9.24Q40.15 9.13 40.07 9.01L40.07 9.01L40.07 9.01Q39.96 8.84 39.92 8.66L39.92 8.66L39.92 8.66Q39.87 8.48 39.78 8.29L39.78 8.29L39.78 8.29Q39.71 8.13 39.70 7.96L39.70 7.96L39.70 7.96Q39.70 7.88 39.69 7.79L39.69 7.79L39.69 7.79Q39.68 7.70 39.68 7.62L39.68 7.62L39.68 7.62Q39.67 7.54 39.67 7.48L39.67 7.48L39.67 7.48Q39.66 7.42 39.66 7.38L39.66 7.38L39.66 7.38Q39.66 7.25 39.68 7.11L39.68 7.11L39.68 7.11Q39.70 6.97 39.73 6.82L39.73 6.82L39.73 6.82Q39.74 6.77 39.77 6.69L39.77 6.69L39.77 6.69Q39.84 6.49 39.95 6.31L39.95 6.31L39.95 6.31Q40.05 6.13 40.19 5.97L40.19 5.97L40.19 5.97Q40.46 5.67 40.93 5.43L40.93 5.43L40.93 5.43Q41.15 5.34 41.39 5.35L41.39 5.35L41.39 5.35Q41.54 5.36 41.69 5.39L41.69 5.39L41.69 5.39Q41.82 5.41 41.91 5.42L41.91 5.42L41.91 5.42Q42 5.43 42.07 5.44L42.07 5.44L42.07 5.44Q42.59 5.50 43.00 5.91L43.00 5.91L43.00 5.91Q43.09 6.00 43.17 6.10L43.17 6.10L43.17 6.10Q43.24 6.21 43.32 6.33L43.32 6.33L43.35 6.38L43.35 6.38Q43.36 6.41 43.37 6.42L43.37 6.42L43.37 6.42Q43.37 6.43 43.38 6.45L43.38 6.45L43.38 6.45Q43.50 6.72 43.59 7.13L43.59 7.13L43.59 7.13Q43.68 7.51 43.62 7.83L43.62 7.83L43.62 7.83Q43.58 8.02 43.52 8.19L43.52 8.19L43.52 8.19Q43.46 8.36 43.41 8.53L43.41 8.53L43.41 8.53Q43.14 9.45 42.21 9.69L42.21 9.69L42.15 9.70L42.15 9.70Q42.10 9.71 42.01 9.73L42.01 9.73L42.01 9.73Q41.93 9.74 41.82 9.75L41.82 9.75L41.82 9.75Q41.64 9.78 41.46 9.76L41.46 9.76L41.46 9.76Q41.27 9.75 41.07 9.69ZM41.77 5.78L41.76 5.78L41.76 5.78Q41.39 5.78 41.09 5.87L41.09 5.87L41.09 5.87Q40.80 5.95 40.56 6.19L40.56 6.19L40.56 6.19Q40.23 6.52 40.14 6.92L40.14 6.92L40.14 6.92Q40.05 7.32 40.15 7.81L40.15 7.81L40.21 8.15L40.21 8.15Q40.22 8.24 40.24 8.30L40.24 8.30L40.24 8.30Q40.25 8.36 40.26 8.37L40.26 8.37L40.26 8.37Q40.30 8.52 40.42 8.66L40.42 8.66L40.42 8.66Q40.54 8.80 40.65 8.90L40.65 8.90L40.65 8.90Q40.70 8.96 40.76 9.02L40.76 9.02L40.76 9.02Q40.81 9.08 40.87 9.13L40.87 9.13L40.87 9.13Q40.97 9.21 41.21 9.29L41.21 9.29L41.22 9.29L41.22 9.29Q41.35 9.32 41.51 9.31L41.51 9.31L41.51 9.31Q41.67 9.30 41.87 9.26L41.87 9.26L41.87 9.26Q41.97 9.23 42.06 9.22L42.06 9.22L42.06 9.22Q42.16 9.21 42.27 9.18L42.27 9.18L42.27 9.18Q42.52 9.12 42.69 8.91L42.69 8.91L42.70 8.91L42.70 8.90L42.70 8.90Q42.81 8.77 42.88 8.57L42.88 8.57L42.88 8.57Q42.95 8.37 42.98 8.32L42.98 8.32L42.98 8.32Q43.33 7.65 43.09 6.87L43.09 6.87L43.08 6.86L43.08 6.86Q43.05 6.79 43.03 6.72L43.03 6.72L43.03 6.72Q43.00 6.65 42.95 6.58L42.95 6.58L42.95 6.58Q42.68 6.18 42.31 6.00L42.31 6.00L42.31 6.00Q42.30 6.00 42.25 5.97L42.25 5.97L42.25 5.97Q42.21 5.94 42.12 5.89L42.12 5.89L42.12 5.89Q41.99 5.81 41.77 5.78L41.77 5.78ZM48.35 5.86L48.35 5.87L48.37 5.89L48.37 5.89Q48.45 5.97 48.51 6.08L48.51 6.08L48.51 6.08Q48.58 6.19 48.63 6.33L48.63 6.33L48.63 6.33Q48.67 6.43 48.72 6.51L48.72 6.51L48.72 6.51Q48.77 6.60 48.81 6.69L48.81 6.69L48.81 6.69Q48.86 6.84 48.89 6.97L48.89 6.97L48.89 6.97Q48.92 7.09 48.92 7.20L48.92 7.20L48.92 7.20Q48.93 7.31 48.93 7.43L48.93 7.43L48.93 7.43Q48.92 7.56 48.90 7.72L48.90 7.72L48.90 7.72Q48.89 7.85 48.89 7.99L48.89 7.99L48.89 7.99Q48.89 8.12 48.86 8.26L48.86 8.26L48.86 8.26Q48.83 8.44 48.76 8.61L48.76 8.61L48.76 8.61Q48.69 8.78 48.59 8.94L48.59 8.94L48.59 8.94Q48.42 9.21 48.11 9.44L48.11 9.44L48.06 9.47L48.06 9.47Q47.98 9.52 47.93 9.53L47.93 9.53L47.93 9.53Q47.85 9.56 47.78 9.59L47.78 9.59L47.78 9.59Q47.71 9.61 47.65 9.63L47.65 9.63L47.65 9.63Q47.30 9.71 46.92 9.70L46.92 9.70L46.92 9.70Q46.55 9.69 46.19 9.69L46.19 9.69L46.19 9.69Q46.06 9.69 45.88 9.70L45.88 9.70L45.88 9.70Q45.69 9.70 45.58 9.63L45.58 9.63L45.58 9.63Q45.49 9.58 45.46 9.45L45.46 9.45L45.46 9.45Q45.45 9.42 45.45 9.33L45.45 9.33L45.45 9.33Q45.45 9.00 45.46 8.68L45.46 8.68L45.46 8.68Q45.47 8.35 45.48 8.03L45.48 8.03L45.48 8.03Q45.49 7.86 45.47 7.69L45.47 7.69L45.47 7.69Q45.45 7.51 45.45 7.34L45.45 7.34L45.45 6.63L45.45 6.06L45.45 6.06Q45.45 5.65 45.55 5.52L45.55 5.52L45.55 5.52Q45.66 5.41 45.89 5.41L45.89 5.41L45.89 5.41Q46.01 5.42 46.10 5.42L46.10 5.42L46.10 5.42Q46.20 5.41 46.28 5.41L46.28 5.41L46.28 5.41Q46.54 5.41 46.81 5.42L46.81 5.42L46.81 5.42Q47.08 5.43 47.37 5.45L47.37 5.45L47.37 5.45Q47.93 5.48 48.35 5.86L48.35 5.86ZM47.46 5.89L47.46 5.89L47.45 5.89L47.45 5.89Q47.35 5.87 47.21 5.87L47.21 5.87L47.21 5.87Q47.07 5.87 46.89 5.89L46.89 5.89L46.89 5.89Q46.55 5.91 46.37 5.88L46.37 5.88L46.37 5.88Q46.07 5.83 46.00 5.88L46.00 5.88L46.00 5.88Q45.90 5.95 45.90 6.17L45.90 6.17L45.90 6.17Q45.90 6.39 45.90 6.60L45.90 6.60L45.90 6.60Q45.91 6.82 45.90 7.02L45.90 7.02L45.90 7.02Q45.86 7.53 45.87 8.04L45.87 8.04L45.87 8.04Q45.88 8.54 45.88 9.04L45.88 9.04L45.88 9.04Q45.88 9.15 45.96 9.22L45.96 9.22L45.96 9.22Q46.05 9.30 46.29 9.26L46.29 9.26L46.29 9.26Q46.29 9.26 46.30 9.26L46.30 9.26L46.30 9.26Q46.31 9.26 46.32 9.26L46.32 9.26L46.32 9.26Q46.46 9.25 46.58 9.25L46.58 9.25L46.58 9.25Q46.70 9.26 46.81 9.26L46.81 9.26L46.81 9.26Q47.22 9.29 47.59 9.22L47.59 9.22L47.59 9.22Q47.97 9.14 48.19 8.72L48.19 8.72L48.19 8.72Q48.28 8.54 48.35 8.37L48.35 8.37L48.35 8.37Q48.43 8.20 48.47 8.02L48.47 8.02L48.47 8.02Q48.51 7.85 48.52 7.66L48.52 7.66L48.52 7.66Q48.53 7.48 48.51 7.26L48.51 7.26L48.51 7.26Q48.47 6.84 48.23 6.42L48.23 6.42L48.23 6.42Q48.12 6.22 47.92 6.09L47.92 6.09L47.92 6.09Q47.73 5.96 47.46 5.89L47.46 5.89ZM50.95 9.70L50.95 9.70L50.95 9.70Q50.73 9.67 50.73 9.44L50.73 9.44L50.73 9.44Q50.72 9.07 50.72 8.72L50.72 8.72L50.72 8.72Q50.72 8.36 50.72 7.99L50.72 7.99L50.72 7.99Q50.72 7.79 50.74 7.58L50.74 7.58L50.74 7.58Q50.76 7.43 50.76 7.30L50.76 7.30L50.76 7.30Q50.76 7.17 50.75 7.06L50.75 7.06L50.75 7.06Q50.74 6.99 50.74 6.90L50.74 6.90L50.74 6.90Q50.73 6.80 50.72 6.67L50.72 6.67L50.72 6.67Q50.72 6.60 50.73 6.51L50.73 6.51L50.73 6.51Q50.73 6.41 50.74 6.28L50.74 6.28L50.74 6.28Q50.74 6.19 50.75 6.11L50.75 6.11L50.75 6.11Q50.75 6.04 50.75 5.99L50.75 5.99L50.75 5.84L50.75 5.83L50.75 5.78L50.75 5.78Q50.73 5.61 50.76 5.54L50.76 5.54L50.76 5.54Q50.78 5.49 50.85 5.44L50.85 5.44L50.85 5.44Q51.11 5.30 51.17 5.61L51.17 5.61L51.17 5.61Q51.23 5.84 51.24 6.07L51.24 6.07L51.24 6.07Q51.25 6.29 51.23 6.51L51.23 6.51L51.23 6.51L51.23 6.51Q51.21 6.73 51.22 6.94L51.22 6.94L51.22 6.94Q51.23 7.15 51.21 7.36L51.21 7.36L51.21 7.36Q51.19 7.55 51.17 7.68L51.17 7.68L51.17 7.68Q51.16 7.82 51.15 7.92L51.15 7.92L51.15 7.92Q51.14 8.05 51.14 8.20L51.14 8.20L51.14 8.20Q51.14 8.35 51.15 8.51L51.15 8.51L51.15 8.51Q51.15 8.54 51.15 8.59L51.15 8.59L51.15 8.59Q51.15 8.63 51.15 8.70L51.15 8.70L51.15 8.70Q51.15 8.80 51.15 8.91L51.15 8.91L51.15 8.91Q51.15 9.02 51.16 9.13L51.16 9.13L51.16 9.13Q51.16 9.20 51.16 9.27L51.16 9.27L51.16 9.27Q51.17 9.33 51.16 9.40L51.16 9.40L51.16 9.40Q51.16 9.54 51.15 9.55L51.15 9.55L51.15 9.55Q51.13 9.68 50.95 9.70ZM53.46 9.56L53.46 9.56L53.46 9.56Q53.43 9.68 53.25 9.70L53.25 9.70L53.25 9.70Q53.05 9.69 53.05 9.49L53.05 9.49L53.05 9.49Q53.05 8.96 53.03 8.41L53.03 8.41L53.03 8.41Q53.01 7.87 53.06 7.33L53.06 7.33L53.06 7.33L53.06 7.33Q53.06 7.17 53.06 7.02L53.06 7.02L53.06 7.02Q53.07 6.87 53.05 6.73L53.05 6.73L53.00 6.21L53.00 6.21Q52.98 5.99 53.07 5.74L53.07 5.74L53.07 5.74Q53.14 5.56 53.25 5.52L53.25 5.52L53.25 5.52Q53.35 5.50 53.45 5.62L53.45 5.62L53.45 5.62Q53.55 5.72 53.59 5.80L53.59 5.80L53.59 5.80Q53.68 5.93 53.77 6.03L53.77 6.03L53.77 6.03Q53.87 6.13 53.96 6.22L53.96 6.22L53.96 6.22Q54.03 6.31 54.11 6.37L54.11 6.37L54.11 6.37Q54.19 6.44 54.26 6.52L54.26 6.52L54.26 6.52Q54.33 6.59 54.41 6.70L54.41 6.70L54.41 6.70Q54.50 6.80 54.59 6.95L54.59 6.95L54.89 7.41L54.89 7.41Q54.93 7.46 54.96 7.52L54.96 7.52L54.96 7.52Q55.00 7.58 55.06 7.66L55.06 7.66L55.06 7.67L55.06 7.67Q55.21 7.86 55.36 8.03L55.36 8.03L55.36 8.03Q55.44 8.11 55.51 8.19L55.51 8.19L55.51 8.19Q55.59 8.26 55.67 8.33L55.67 8.33L55.67 8.33Q55.75 8.42 55.85 8.39L55.85 8.39L55.85 8.39Q56.01 8.35 56 8.07L56 8.07L56 8.07Q56 8.00 55.99 7.93L55.99 7.93L55.99 7.93Q55.98 7.85 55.98 7.78L55.98 7.78L55.98 7.78Q55.97 7.72 55.97 7.67L55.97 7.67L55.97 7.67Q55.96 7.62 55.96 7.56L55.96 7.56L55.96 7.56Q55.96 7.53 55.96 7.50L55.96 7.50L55.96 7.50Q55.95 7.46 55.95 7.42L55.95 7.42L55.95 7.42Q55.98 6.82 55.91 6.30L55.91 6.30L55.91 6.30Q55.90 6.27 55.90 6.19L55.90 6.19L55.90 6.19Q55.90 6.11 55.92 5.99L55.92 5.99L55.92 5.99Q55.92 5.84 55.96 5.67L55.96 5.67L55.96 5.67Q55.98 5.42 56.18 5.42L56.18 5.42L56.18 5.42Q56.40 5.42 56.40 5.68L56.40 5.68L56.40 5.68Q56.40 5.89 56.41 6.11L56.41 6.11L56.41 6.11Q56.42 6.32 56.42 6.54L56.42 6.54L56.42 6.54Q56.43 6.85 56.41 7.16L56.41 7.16L56.41 7.16Q56.39 7.48 56.40 7.79L56.40 7.79L56.40 7.79Q56.42 8.00 56.41 8.21L56.41 8.21L56.41 8.21Q56.41 8.42 56.40 8.62L56.40 8.62L56.40 8.62Q56.40 8.74 56.41 8.85L56.41 8.85L56.41 8.85Q56.41 8.96 56.41 9.06L56.41 9.06L56.41 9.34L56.41 9.34Q56.40 9.38 56.40 9.42L56.40 9.42L56.40 9.42Q56.40 9.46 56.40 9.50L56.40 9.50L56.40 9.50Q56.39 9.50 56.39 9.51L56.39 9.51L56.39 9.51Q56.39 9.52 56.38 9.52L56.38 9.52L56.38 9.52Q56.31 9.62 56.15 9.62L56.15 9.62L56.15 9.62Q55.97 9.63 55.87 9.50L55.87 9.50L55.87 9.50Q55.77 9.37 55.68 9.22L55.68 9.22L55.68 9.22Q55.60 9.07 55.49 8.93L55.49 8.93L55.49 8.93Q55.37 8.76 55.22 8.58L55.22 8.58L55.22 8.58Q55.08 8.39 54.90 8.18L54.90 8.18L54.90 8.18Q54.83 8.10 54.71 7.90L54.71 7.90L54.47 7.52L54.47 7.52Q54.38 7.38 54.29 7.24L54.29 7.24L54.29 7.24Q54.20 7.10 54.11 6.97L54.11 6.97L54.11 6.97Q54.07 6.92 54.02 6.87L54.02 6.87L54.02 6.87Q53.97 6.81 53.92 6.77L53.92 6.77L53.92 6.77Q53.86 6.73 53.79 6.71L53.79 6.71L53.79 6.71Q53.72 6.69 53.66 6.71L53.66 6.71L53.66 6.71Q53.47 6.76 53.48 7.08L53.48 7.08L53.48 7.08Q53.49 7.31 53.49 7.52L53.49 7.52L53.49 7.52Q53.50 7.72 53.51 7.90L53.51 7.90L53.51 7.90Q53.53 8.05 53.51 8.19L53.51 8.19L53.51 8.19Q53.49 8.33 53.49 8.47L53.49 8.47L53.49 9.00L53.49 9.00Q53.49 9.17 53.48 9.31L53.48 9.31L53.48 9.31Q53.47 9.45 53.46 9.56ZM61.91 9.26L61.91 9.26L61.91 9.26Q61.40 9.71 60.69 9.75L60.69 9.75L60.69 9.75Q60.00 9.78 59.38 9.53L59.38 9.53L59.38 9.52L59.36 9.52L59.36 9.52Q59.26 9.49 59.07 9.33L59.07 9.33L59.07 9.33Q58.88 9.17 58.82 9.08L58.82 9.08L58.82 9.08Q58.72 8.95 58.64 8.78L58.64 8.78L58.64 8.78Q58.56 8.61 58.48 8.45L58.48 8.45L58.48 8.45Q58.33 8.16 58.32 7.95L58.32 7.95L58.32 7.95Q58.31 7.85 58.31 7.71L58.31 7.71L58.31 7.71Q58.32 7.58 58.33 7.41L58.33 7.41L58.33 7.41Q58.39 6.66 58.80 6.02L58.80 6.02L58.80 6.02Q58.84 5.97 58.93 5.89L58.93 5.89L58.93 5.89Q59.03 5.81 59.18 5.73L59.18 5.73L59.18 5.73Q59.49 5.56 59.71 5.49L59.71 5.49L59.71 5.49Q59.86 5.44 60.03 5.42L60.03 5.42L60.03 5.42Q60.44 5.37 60.87 5.42L60.87 5.42L60.87 5.42Q61.30 5.48 61.67 5.69L61.67 5.69L61.67 5.69Q61.73 5.72 61.79 5.77L61.79 5.77L61.79 5.77Q61.86 5.82 61.95 5.89L61.95 5.89L61.95 5.89Q62.12 6.02 62.14 6.15L62.14 6.15L62.14 6.15Q62.15 6.21 62.10 6.27L62.10 6.27L62.10 6.27Q62.02 6.36 61.95 6.36L61.95 6.36L61.95 6.36Q61.87 6.36 61.78 6.30L61.78 6.30L61.78 6.30Q61.68 6.23 61.63 6.19L61.63 6.19L61.63 6.19Q61.51 6.12 61.44 6.07L61.44 6.07L61.44 6.07Q61.37 6.02 61.35 6.01L61.35 6.01L61.35 6.01Q61.00 5.82 60.50 5.82L60.50 5.82L60.50 5.82Q60.39 5.82 60.25 5.83L60.25 5.83L60.25 5.83Q60.12 5.84 59.96 5.87L59.96 5.87L59.94 5.87L59.93 5.88L59.93 5.88Q59.06 6.13 58.80 7.06L58.80 7.06L58.80 7.06Q58.71 7.40 58.77 7.70L58.77 7.70L58.77 7.70Q58.82 8.00 58.90 8.31L58.90 8.31L58.90 8.31Q59.03 8.79 59.33 9.00L59.33 9.00L59.33 9.00Q59.63 9.21 60.09 9.30L60.09 9.30L60.09 9.30L60.09 9.30Q60.22 9.32 60.32 9.32L60.32 9.32L60.32 9.32Q60.43 9.32 60.53 9.30L60.53 9.30L60.53 9.30Q60.63 9.28 60.74 9.26L60.74 9.26L60.74 9.26Q60.85 9.24 60.97 9.23L60.97 9.23L60.97 9.23Q61.46 9.17 61.66 8.88L61.66 8.88L61.66 8.87L61.66 8.87Q61.81 8.64 61.78 8.22L61.78 8.22L61.78 8.22Q61.78 8.00 61.63 7.87L61.63 7.87L61.63 7.87Q61.44 7.70 61.11 7.71L61.11 7.71L60.57 7.73L60.57 7.73Q60.48 7.74 60.41 7.74L60.41 7.74L60.41 7.74Q60.34 7.75 60.29 7.75L60.29 7.75L60.29 7.75Q60.03 7.71 60.06 7.51L60.06 7.51L60.06 7.51Q60.08 7.38 60.25 7.33L60.25 7.33L60.25 7.33Q60.56 7.31 60.86 7.33L60.86 7.33L60.86 7.33Q61.15 7.35 61.47 7.33L61.47 7.33L61.76 7.31L61.76 7.31Q61.96 7.29 62.06 7.38L62.06 7.38L62.06 7.38Q62.17 7.46 62.17 7.66L62.17 7.66L62.17 7.66Q62.19 7.87 62.19 7.98L62.19 7.98L62.19 7.98Q62.19 8.16 62.20 8.36L62.20 8.36L62.20 8.36Q62.21 8.57 62.17 8.74L62.17 8.74L62.17 8.74Q62.13 9.00 61.91 9.26Z"></path></g><!----><!----></svg>